<?xml version="1.0" encoding="UTF-8" standalone="no"?>
<svg
   xmlns:dc="http://purl.org/dc/elements/1.1/"
   xmlns:cc="http://creativecommons.org/ns#"
   xmlns:rdf="http://www.w3.org/1999/02/22-rdf-syntax-ns#"
   xmlns:svg="http://www.w3.org/2000/svg"
   xmlns="http://www.w3.org/2000/svg"
   xmlns:sodipodi="http://sodipodi.sourceforge.net/DTD/sodipodi-0.dtd"
   xmlns:inkscape="http://www.inkscape.org/namespaces/inkscape"
   version="1.0"
   width="500px"
   height="500px"
   viewBox="0 0 5000 5000"
   preserveAspectRatio="xMidYMid meet"
   id="svg5"
   sodipodi:docname="darkBlueWave.svg"
   inkscape:version="0.92.3 (2405546, 2018-03-11)">
  <metadata
     id="metadata11">
    <rdf:RDF>
      <cc:Work
         rdf:about="">
        <dc:format>image/svg+xml</dc:format>
        <dc:type
           rdf:resource="http://purl.org/dc/dcmitype/StillImage" />
        <dc:title></dc:title>
      </cc:Work>
    </rdf:RDF>
  </metadata>
  <defs
     id="defs9" />
  <sodipodi:namedview
     pagecolor="#ffffff"
     bordercolor="#666666"
     borderopacity="1"
     objecttolerance="10"
     gridtolerance="10"
     guidetolerance="10"
     inkscape:pageopacity="0"
     inkscape:pageshadow="2"
     inkscape:window-width="1920"
     inkscape:window-height="1001"
     id="namedview7"
     showgrid="false"
     inkscape:pagecheckerboard="true"
     inkscape:showpageshadow="false"
     inkscape:snap-page="true"
     inkscape:zoom="1.888"
     inkscape:cx="245.91236"
     inkscape:cy="363.18841"
     inkscape:window-x="-9"
     inkscape:window-y="-9"
     inkscape:window-maximized="1"
     inkscape:current-layer="svg5" />
  <g
     id="layer101"
     style="fill:#00a8f3;stroke:none"
     transform="matrix(1,0,0,1.3201688,0,-1600.844)">
    <path
       d="M 0,3211 V 1422 l 67,-20 c 195,-56 449,-114 593,-136 346,-53 515,-64 749,-47 258,19 520,81 821,195 96,36 184,70 195,75 94,42 115,51 120,51 6,0 65,26 180,80 44,21 121,52 170,70 50,18 113,43 142,56 28,13 58,24 65,24 8,0 18,4 24,8 9,9 180,64 271,88 247,64 566,71 783,15 113,-29 234,-64 297,-86 40,-14 78,-25 85,-25 7,-1 31,-9 53,-20 22,-11 47,-19 56,-20 8,0 19,-4 25,-9 5,-5 41,-21 79,-36 39,-15 89,-36 112,-46 23,-10 49,-19 57,-19 8,0 18,-5 21,-10 3,-5 13,-10 21,-10 12,0 14,227 14,1700 V 5000 H 2500 0 Z"
       id="path2"
       inkscape:connector-curvature="0" />
  </g>
</svg>
