<svg xmlns="http://www.w3.org/2000/svg" xmlns:svg="http://www.w3.org/2000/svg" id="svg5" width="500" height="500" preserveAspectRatio="xMidYMid meet" version="1.0" viewBox="0 0 5000 5000"><metadata id="metadata11"/><g id="layer101" transform="matrix(1,0,0,1.3201688,0,-1600.844)" style="fill:#00a8f3;stroke:none"><path id="path2" d="M 0,3211 V 1422 l 67,-20 c 195,-56 449,-114 593,-136 346,-53 515,-64 749,-47 258,19 520,81 821,195 96,36 184,70 195,75 94,42 115,51 120,51 6,0 65,26 180,80 44,21 121,52 170,70 50,18 113,43 142,56 28,13 58,24 65,24 8,0 18,4 24,8 9,9 180,64 271,88 247,64 566,71 783,15 113,-29 234,-64 297,-86 40,-14 78,-25 85,-25 7,-1 31,-9 53,-20 22,-11 47,-19 56,-20 8,0 19,-4 25,-9 5,-5 41,-21 79,-36 39,-15 89,-36 112,-46 23,-10 49,-19 57,-19 8,0 18,-5 21,-10 3,-5 13,-10 21,-10 12,0 14,227 14,1700 V 5000 H 2500 0 Z"/></g></svg>